<svg xmlns="http://www.w3.org/2000/svg" width="151" height="22" viewBox="0 0 151 22">
    <g fill="none" fill-rule="nonzero">
        <g fill="#000">
            <path d="M9.495.206v.447c-.73 0-1.269.172-1.538.55-.307.378-.423.997-.423 1.925v14.369c0 1.34-.384 2.406-1.191 3.162-.808.757-1.845 1.135-3.152 1.135-1.269 0-2.23-.482-2.845-1.41l.423-.275c.384.482.922.688 1.576.688.846 0 1.538-.344 2.076-.997.538-.688.807-1.616.807-2.819V3.094c0-.928-.154-1.581-.423-1.96-.269-.343-.807-.55-1.576-.55V.138h6.266v.068zM20.681 8.25h-4.613v4.606c0 .928.154 1.582.423 1.925.27.344.807.55 1.576.55v.447h-6.266v-.447c.77 0 1.269-.172 1.538-.55.27-.344.423-.997.423-1.925V3.162c0-.928-.154-1.58-.423-1.959-.27-.344-.807-.55-1.576-.55V.206h11.955v2.75h-.384c-.193-.825-.423-1.375-.73-1.615-.308-.241-1-.378-2.077-.378h-4.42v6.53h4.536c.615 0 1.076-.137 1.384-.412.307-.275.5-.756.576-1.41h.462v4.366h-.462c-.115-1.203-.73-1.787-1.922-1.787z"/>
        </g>
        <!-- <g fill="#000">
            <path d="M41.552 1.83v-.78h-6.728v6.234h4.233v.677h-4.233v6.572h7.37v-.779h.87v1.423h-9.072V.407h8.467v1.422h-.907zM44.765 1.05V.373h1.398l5.897 13.855h.037L57.805.373h1.398v.677h-.756L52.4 15.482h-.756L45.483 1.05zM71.185 1.83v-.78h-6.728v6.234h4.233v.677h-4.233v6.572h7.37v-.779h.87v1.423h-9.071V.407h8.466v1.422h-.907zM87.703 15.177L84.754 9.79c-.529-.982-1.133-1.456-1.776-1.456h-4.876v6.843h-.87V1.05h-.869V.373h6.728c1.399 0 2.457.406 3.251 1.253.643.712.945 1.558.945 2.54 0 1.525-.68 2.643-2.117 3.355-.227.101-.642.237-1.247.406v.034c.567.237 1.096.745 1.55 1.525l2.721 5.013h.87v.678h-1.361zM78.064 1.05l.038 6.606h3.288c1.361 0 2.457-.203 3.251-.61 1.172-.61 1.777-1.558 1.777-2.88 0-.846-.265-1.557-.832-2.133-.605-.644-1.474-.983-2.532-.983h-4.99zM90.197 1.05V.373h1.474l5.368 7.86h.037l5.368-7.86h1.512v.677h-.983l-5.519 7.995v6.098h-.869V8.977l-5.443-7.96h-.945zM107.32 1.05V.373h5.216c2.116 0 3.893.745 5.33 2.202 1.36 1.422 2.04 3.15 2.04 5.149 0 2.066-.68 3.828-2.04 5.25-1.4 1.424-3.176 2.169-5.406 2.169h-4.309V1.016h-.831v.034zm1.738 13.45h3.44c1.965 0 3.515-.644 4.725-1.932 1.21-1.287 1.814-2.913 1.814-4.81 0-1.863-.605-3.422-1.814-4.71-1.248-1.32-2.835-1.998-4.687-1.998h-3.478V14.5zM120.851 15.177v-.678h.756L127.693.068h.945l6.085 14.431h.756v.678h-1.36l-1.777-4.133h-8.391l-1.777 4.133h-1.323zm7.333-14.06l-3.893 9.25h7.862l-3.931-9.25h-.038zM136.31 1.05V.373h1.475l5.367 7.86h.038l5.367-7.86h1.512v.677h-.983l-5.518 7.995v6.098h-.87V8.977l-5.443-7.96h-.945z"/>
        </g> -->
        <!-- <path fill="#76C4D5" d="M33.917 20.167h115.5v1.048h-115.5z"/> -->
    </g>
</svg>
