<svg id="SvgjsSvg1062" width="288" height="288" xmlns="http://www.w3.org/2000/svg" version="1.1" xmlns:xlink="http://www.w3.org/1999/xlink" xmlns:svgjs="http://svgjs.com/svgjs"><defs id="SvgjsDefs1063"></defs><g id="SvgjsG1064"><svg xmlns="http://www.w3.org/2000/svg" viewBox="0 0 64 64" width="288" height="288"><g fill="#ffffff" data-name="More" class="color222 svgShape"><path d="M45 52.5H19a7.508 7.508 0 0 1-7.5-7.5V19a7.508 7.508 0 0 1 7.5-7.5h26a7.508 7.508 0 0 1 7.5 7.5v26a7.508 7.508 0 0 1-7.5 7.5Zm-26-38a4.505 4.505 0 0 0-4.5 4.5v26a4.505 4.505 0 0 0 4.5 4.5h26a4.505 4.505 0 0 0 4.5-4.5V19a4.505 4.505 0 0 0-4.5-4.5Z" fill="#ffffff" class="color000 svgShape"></path><path d="M27.243 42.631a1.5 1.5 0 0 1-.932-2.675L36.343 32 26.31 24.044a1.5 1.5 0 1 1 1.864-2.35l11.516 9.13a1.5 1.5 0 0 1 0 2.351l-11.516 9.132a1.492 1.492 0 0 1-.93.324Z" fill="#ffffff" class="color000 svgShape"></path></g></svg></g></svg>